HIERARCHY
ROOT Hips
{
	OFFSET -0.001795 -0.223333 0.028219
	CHANNELS 6 Xposition Yposition Zposition Zrotation Yrotation Xrotation 
	JOINT LeftUpLeg
	{
		OFFSET 0.069520 -0.091406 -0.006815
		CHANNELS 3 Zrotation Yrotation Xrotation
		JOINT LeftLeg
		{
			OFFSET 0.034277 -0.375199 -0.004496
			CHANNELS 3 Zrotation Yrotation Xrotation
			JOINT LeftFoot
			{
				OFFSET -0.013596 -0.397961 -0.043693
				CHANNELS 3 Zrotation Yrotation Xrotation
				JOINT LeftToe
				{
					OFFSET 0.026358 -0.055791 0.119288
					CHANNELS 3 Zrotation Yrotation Xrotation
					End Site
					{
						OFFSET 0.000000 0.000000 0.000000
					}
				}
			}
		}
	}
	JOINT RightUpLeg
	{
		OFFSET -0.067670 -0.090522 -0.004320
		CHANNELS 3 Zrotation Yrotation Xrotation
		JOINT RightLeg
		{
			OFFSET -0.038290 -0.382569 -0.008850
			CHANNELS 3 Zrotation Yrotation Xrotation
			JOINT RightFoot
			{
				OFFSET 0.015774 -0.398415 -0.042312
				CHANNELS 3 Zrotation Yrotation Xrotation
				JOINT RightToe
				{
					OFFSET -0.025372 -0.048144 0.123348
					CHANNELS 3 Zrotation Yrotation Xrotation
					End Site
					{
						OFFSET 0.000000 0.000000 0.000000
					}
				}
			}
		}
	}
	JOINT Spine
	{
		OFFSET -0.002533 0.108963 -0.026696
		CHANNELS 3 Zrotation Yrotation Xrotation
		JOINT Spine1
		{
			OFFSET 0.005487 0.135180 0.001092
			CHANNELS 3 Zrotation Yrotation Xrotation
			JOINT Spine2
			{
				OFFSET 0.001457 0.052922 0.025425
				CHANNELS 3 Zrotation Yrotation Xrotation
				JOINT Neck
				{
					OFFSET -0.002778 0.213870 -0.042857
					CHANNELS 3 Zrotation Yrotation Xrotation
					JOINT Head
					{
						OFFSET 0.005152 0.064970 0.051349
						CHANNELS 3 Zrotation Yrotation Xrotation
						End Site
						{
							OFFSET 0.000000 0.000000 0.000000
						}
					}
				}
				JOINT LeftShoulder
				{
					OFFSET 0.078845 0.121749 -0.034090
					CHANNELS 3 Zrotation Yrotation Xrotation
					JOINT LeftArm
					{
						OFFSET 0.090977 0.030469 -0.008868
						CHANNELS 3 Zrotation Yrotation Xrotation
						JOINT LeftForeArm
						{
							OFFSET 0.259612 -0.012772 -0.027456
							CHANNELS 3 Zrotation Yrotation Xrotation
							JOINT LeftHand
							{
								OFFSET 0.249234 0.008986 -0.001171
								CHANNELS 3 Zrotation Yrotation Xrotation
								End Site
								{
									OFFSET 0.000000 0.000000 0.000000
								}
							}
						}
					}
				}
				JOINT RightShoulder
				{
					OFFSET -0.081759 0.118833 -0.038615
					CHANNELS 3 Zrotation Yrotation Xrotation
					JOINT RightArm
					{
						OFFSET -0.096012 0.032551 -0.009143
						CHANNELS 3 Zrotation Yrotation Xrotation
						JOINT RightForeArm
						{
							OFFSET -0.253742 -0.013329 -0.021401
							CHANNELS 3 Zrotation Yrotation Xrotation
							JOINT RightHand
							{
								OFFSET -0.255298 0.007772 -0.005559
								CHANNELS 3 Zrotation Yrotation Xrotation
								End Site
								{
									OFFSET 0.000000 0.000000 0.000000
								}
							}
						}
					}
				}
			}
		}
	}
}
MOTION
Frames: 16
Frame Time: 0.050000
-0.945102 0.978519 4.006289 -178.428460 71.842288 -176.369540 -4.816376 -0.174361 -5.028663 5.099821 -0.943786 4.726858 -7.275056 -3.937407 12.144338 0.000000 0.000000 0.000000 5.091790 -0.215836 -6.223073 -1.394683 -1.889450 3.680659 1.254561 -0.722872 12.817075 0.000000 0.000000 0.000000 -0.329514 -0.527387 9.071082 -4.288717 -2.737388 -4.395300 -0.673844 13.511918 -1.756609 4.648069 -8.355397 1.630751 0.000000 0.000000 0.000000 -13.906648 -8.891819 -18.642182 -43.826417 16.104651 -8.150011 -100.624685 -44.291248 32.066009 0.000000 0.000000 0.000000 22.451087 -9.417796 13.059978 49.745810 8.192725 -2.672589 118.964936 63.054236 127.122473 0.000000 0.000000 0.000000 
-0.942295 0.976329 4.005865 -176.674039 73.225209 -174.618968 -3.944610 -0.245444 -5.485625 4.086185 -1.273182 6.664134 -5.933767 -3.799872 10.871173 0.000000 0.000000 0.000000 5.740125 0.027562 -5.817188 -2.010684 -1.467651 3.229707 1.477436 -0.226781 12.786604 0.000000 0.000000 0.000000 -0.477830 -0.579086 9.373811 -4.447313 -2.802309 -3.618562 -0.365054 13.252020 -2.524502 5.054411 -7.730036 0.888209 0.000000 0.000000 0.000000 -13.275498 -9.537114 -16.818912 -44.857199 14.742207 -8.058373 -99.089380 -46.982163 33.158703 0.000000 0.000000 0.000000 21.560881 -8.300006 12.625391 49.347598 8.114683 -2.523413 118.378731 61.093274 124.212004 0.000000 0.000000 0.000000 
-0.939046 0.974044 4.004035 -175.181184 75.092990 -173.046124 -3.448171 -0.292864 -5.872985 3.188908 -1.628564 8.499204 -3.896267 -3.151889 9.273681 0.000000 0.000000 0.000000 5.553301 0.053771 -5.709145 -1.777690 -1.448860 3.211076 2.759514 1.121570 11.655803 0.000000 0.000000 0.000000 0.004893 -0.664553 9.595692 -5.194031 -2.464912 -3.411932 0.543344 12.423090 -2.197910 5.391644 -6.490610 -0.272241 0.000000 0.000000 0.000000 -13.624275 -9.838574 -16.118824 -45.303518 13.600484 -7.587623 -97.496049 -49.408055 34.855618 0.000000 0.000000 0.000000 20.682551 -7.250406 12.064323 48.859161 8.672495 -2.189019 116.858752 59.556708 120.415980 0.000000 0.000000 0.000000 
-0.934980 0.971119 4.000155 -174.142118 76.394726 -171.946463 -3.543886 -0.265661 -5.611526 2.483309 -1.852654 9.541012 -3.052614 -2.645738 8.598932 0.000000 0.000000 0.000000 5.570661 0.091740 -5.896876 -2.323171 -1.275471 3.563315 3.953403 2.485401 11.262528 0.000000 0.000000 0.000000 0.212092 -0.755448 9.991256 -5.755329 -2.391385 -3.063577 1.405361 11.746285 -2.582464 5.530142 -5.985517 -0.536361 0.000000 0.000000 0.000000 -14.164706 -11.410597 -15.134342 -45.269249 14.027016 -7.418651 -96.486156 -51.002030 35.965874 0.000000 0.000000 0.000000 19.940885 -6.194616 11.581741 48.409716 8.222674 -2.217377 115.810400 57.507417 116.320010 0.000000 0.000000 0.000000 
-0.930096 0.968710 3.994833 -173.680317 77.772736 -171.342679 -4.136641 -0.203971 -5.282154 2.465267 -1.764314 9.305312 -3.284041 -2.544992 8.487162 0.000000 0.000000 0.000000 4.829607 -0.042331 -6.173305 -2.155172 -1.441276 4.325257 5.340661 3.786539 9.926635 0.000000 0.000000 0.000000 0.502901 -0.797427 10.002720 -5.881528 -2.260138 -2.687653 1.118959 11.545541 -2.906045 6.029918 -6.146738 -0.601205 0.000000 0.000000 0.000000 -13.984600 -12.080679 -14.119675 -45.566045 13.234600 -7.184693 -95.708339 -52.935117 37.254597 0.000000 0.000000 0.000000 18.748856 -5.903930 10.647192 48.329706 7.573989 -2.097875 115.781780 55.515141 114.684566 0.000000 0.000000 0.000000 
-0.924580 0.965263 3.988863 -173.147065 78.433418 -170.473417 -4.904439 -0.141381 -4.829607 2.627364 -1.883010 9.915446 -3.283755 -2.936970 7.865714 0.000000 0.000000 0.000000 4.357651 -0.219584 -7.386700 -2.638357 -1.852799 6.574886 6.512885 4.755075 8.445355 0.000000 0.000000 0.000000 0.928871 -1.019295 10.820954 -6.932263 -1.680025 -3.585319 1.980621 10.163152 -2.016864 6.137290 -5.167140 -1.541534 0.000000 0.000000 0.000000 -13.114209 -11.761111 -12.990507 -46.061929 12.714374 -7.573730 -97.781685 -53.314699 38.810297 0.000000 0.000000 0.000000 17.839448 -5.883430 9.674684 48.706207 6.928665 -2.115759 113.973711 54.155485 110.952368 0.000000 0.000000 0.000000 
-0.917992 0.961861 3.982714 -172.381658 78.441657 -169.228679 -5.177276 -0.137025 -4.884727 2.268998 -2.099734 10.763975 -3.339862 -3.270968 7.517237 0.000000 0.000000 0.000000 4.072578 -0.639599 -10.245602 -2.834957 -3.159498 10.601260 7.467227 5.568294 6.304182 0.000000 0.000000 0.000000 0.972769 -1.333062 12.060138 -5.619871 -0.858783 -5.652932 0.363640 9.701220 -0.632100 6.457822 -4.920622 -2.539859 0.000000 0.000000 0.000000 -12.621510 -12.416308 -12.710107 -45.627114 12.499032 -7.482591 -98.358017 -53.837421 39.460451 0.000000 0.000000 0.000000 17.533251 -5.926003 9.843043 48.652403 5.984612 -2.432066 113.595270 54.141114 110.476752 0.000000 0.000000 0.000000 
-0.909658 0.955505 3.976501 -171.697902 78.768517 -168.358470 -5.739342 -0.153104 -5.331573 2.184053 -2.842768 13.416308 -1.560718 -2.857485 6.008353 0.000000 0.000000 0.000000 4.250414 -1.319757 -13.872610 -4.602954 -5.282471 16.972890 9.785489 8.223514 3.031180 0.000000 0.000000 0.000000 1.029197 -1.770772 13.651908 -6.652720 -0.806348 -5.410672 1.090981 9.506171 -1.181306 6.461965 -3.354617 -4.748451 0.000000 0.000000 0.000000 -12.920111 -12.581291 -12.214070 -45.203633 12.701200 -7.489640 -99.282913 -55.551658 42.897415 0.000000 0.000000 0.000000 17.242124 -5.289658 9.720614 49.568510 5.245620 -2.672960 111.978130 54.791119 108.355470 0.000000 0.000000 0.000000 
-0.898295 0.947716 3.969664 -168.577636 79.623358 -164.915385 -6.574387 -0.203382 -5.860960 2.576789 -3.786329 16.180649 1.390346 -2.768654 2.972079 0.000000 0.000000 0.000000 5.803487 -2.305548 -19.181838 -8.634574 -7.678848 24.927467 11.112615 11.322929 0.765899 0.000000 0.000000 0.000000 1.511872 -2.319325 15.054674 -7.155304 -0.000450 -7.270375 1.510942 9.177350 0.522936 6.430120 -2.187574 -6.221112 0.000000 0.000000 0.000000 -13.834447 -12.190740 -13.141776 -44.648509 13.834047 -7.639838 -100.315400 -55.089311 44.121521 0.000000 0.000000 0.000000 16.917284 -5.322275 9.448677 49.125389 4.236607 -3.095864 109.969882 54.719714 105.426184 0.000000 0.000000 0.000000 
-0.882926 0.934523 3.962000 -166.241522 79.621440 -162.688075 -7.696505 -0.229117 -5.640895 2.725613 -5.534653 20.230461 5.682301 -1.185504 -0.273637 0.000000 0.000000 0.000000 9.099762 -3.843777 -25.715071 -19.219009 -10.153502 37.045137 14.419765 18.382696 -0.562418 0.000000 0.000000 0.000000 0.821697 -3.042170 17.384256 -6.645150 0.300426 -7.900700 0.947382 8.837931 0.386554 7.791984 -2.006590 -8.276890 0.000000 0.000000 0.000000 -13.703154 -12.423366 -12.365982 -44.690879 13.420176 -7.688933 -101.242938 -56.652853 47.104134 0.000000 0.000000 0.000000 17.071127 -4.146864 10.195143 48.739074 3.071968 -3.844169 110.177087 56.836992 106.503675 0.000000 0.000000 0.000000 
-0.862969 0.914322 3.953409 -161.341278 80.018198 -159.023702 -7.879241 -0.184873 -4.884453 0.431743 -7.814954 25.623221 10.893842 2.216866 -3.582218 0.000000 0.000000 0.000000 12.445904 -5.069500 -30.877382 -31.743096 -10.592020 48.540838 18.261411 26.701678 1.688162 0.000000 0.000000 0.000000 -0.260700 -4.220342 20.551712 -5.681440 0.825405 -8.645879 0.905678 10.466907 1.849653 7.984887 -0.992866 -10.510943 0.000000 0.000000 0.000000 -13.461307 -12.209350 -12.511708 -46.048925 11.828233 -7.493688 -103.523418 -58.114245 50.172981 0.000000 0.000000 0.000000 17.652756 -3.919324 10.988194 47.783572 3.823142 -4.091365 106.506891 59.552912 103.755927 0.000000 0.000000 0.000000 
-0.835727 0.891075 3.942899 -148.333941 81.322904 -146.456760 -7.462440 -0.181414 -4.843909 -3.845468 -9.936072 31.564133 15.133586 8.263727 -3.793860 0.000000 0.000000 0.000000 18.025714 -6.756053 -38.689790 -42.684380 -6.737484 56.002031 20.498674 32.200330 4.835107 0.000000 0.000000 0.000000 -1.115794 -4.845330 22.294843 -6.979617 0.665238 -6.374917 2.978673 11.731775 0.136132 8.548909 0.686235 -14.710480 0.000000 0.000000 0.000000 -15.194039 -12.903182 -12.466125 -45.167453 11.916635 -6.659973 -106.486310 -60.060738 56.201069 0.000000 0.000000 0.000000 16.078444 -2.032718 10.312596 47.498169 1.418970 -4.598171 105.631345 63.581063 105.407573 0.000000 0.000000 0.000000 
-0.794613 0.878953 3.927648 -146.189263 79.881566 -143.343325 -6.834130 -0.093637 -3.327755 -5.288315 -10.144981 32.519874 15.583588 8.515976 -3.876023 0.000000 0.000000 0.000000 21.424657 -8.475008 -44.148108 -42.973891 -5.029233 56.187520 19.690705 33.312699 1.154916 0.000000 0.000000 0.000000 -1.485644 -4.977023 22.498912 -5.129497 0.327573 -5.670280 4.352201 8.258524 -0.372444 5.934950 2.481622 -15.511735 0.000000 0.000000 0.000000 -18.641413 -11.432436 -14.624992 -43.407991 13.812547 -6.264067 -106.068203 -58.737349 57.383366 0.000000 0.000000 0.000000 14.764779 -2.051883 8.549277 45.256443 -2.261484 -5.501427 103.051603 62.677839 100.070613 0.000000 0.000000 0.000000 
-0.734963 0.886559 3.906403 -146.301617 78.770753 -142.061162 -7.466184 -0.222717 1.463772 -1.151037 -7.494067 26.233635 10.016603 4.059409 -1.044685 0.000000 0.000000 0.000000 24.367418 -8.522286 -45.776367 -36.185122 -5.206725 50.022173 18.784291 29.907580 2.483098 0.000000 0.000000 0.000000 -1.292946 -4.335122 20.824327 -3.413367 -0.379435 -4.444064 4.957517 4.097943 -0.192282 5.603042 2.617884 -15.081285 0.000000 0.000000 0.000000 -19.003559 -6.952831 -15.721953 -44.392386 13.962397 -7.016054 -110.589848 -55.942237 59.320148 0.000000 0.000000 0.000000 13.465730 -2.272848 6.965839 43.632245 -6.171488 -6.280379 104.203925 61.961971 99.831238 0.000000 0.000000 0.000000 
-0.658178 0.911610 3.878538 -142.394743 78.180778 -135.795927 -7.798717 -0.985477 6.969890 3.623026 -4.425367 18.325954 -0.144586 3.745998 9.944833 0.000000 0.000000 0.000000 25.131603 -7.568991 -44.216212 -27.669344 -4.663247 39.887061 16.738488 24.497452 5.375798 0.000000 0.000000 0.000000 0.207240 -3.106015 17.315516 -0.632158 -2.101925 -1.951378 4.339439 2.189828 -2.907384 4.547091 3.324725 -16.166213 0.000000 0.000000 0.000000 -17.971682 -2.735497 -15.254743 -45.362370 18.361034 -9.884371 -112.701467 -50.462623 55.543953 0.000000 0.000000 0.000000 12.134014 -4.395538 4.203200 41.846442 -11.090871 -6.562825 108.291961 58.956892 101.431337 0.000000 0.000000 0.000000 
-0.571577 0.939470 3.846820 -140.251557 77.989108 -132.085792 -8.679914 -1.524948 9.723010 5.616566 -4.128259 16.876583 -9.231918 5.718562 21.610261 0.000000 0.000000 0.000000 21.387013 -5.887595 -38.577624 -18.353259 -5.264846 32.288175 14.308470 19.957298 7.173740 0.000000 0.000000 0.000000 2.467032 -2.384611 14.034534 -2.448707 -2.879712 0.502933 7.724833 1.080699 -4.667065 1.619586 4.414456 -14.169199 0.000000 0.000000 0.000000 -19.955453 -0.243568 -17.053613 -44.288011 21.631469 -10.614201 -112.047088 -48.645876 54.717348 0.000000 0.000000 0.000000 7.760815 -5.253098 1.226953 44.011470 -15.830069 -6.769825 113.277068 58.098807 108.237391 0.000000 0.000000 0.000000 
